{"title":"Mars Needs Moms! 2011 DVDrip English Klam","uid":6471125,"size":1471673942,"categoryP":"video","categoryS":"movies","magnet":"?xt=urn:btih:f904451b7c6964fb85b9f3c10b60b0d0ccce73d0&amp;dn=Mars+Needs+Moms%21+2011+DVDrip+English+Klam&amp;tr=udp%3A%2F%2Ftracker.openbittorrent.com%3A80&amp;tr=udp%3A%2F%2Fopen.demonii.com%3A1337&amp;tr=udp%3A%2F%2Ftracker.coppersurfer.tk%3A6969&amp;tr=udp%3A%2F%2Fexodus.desync.com%3A6969","seeders":0,"leechers":0,"uploader":"Klambake","files":-1,"time":1308144310,"description":"With the voices of Seth Green, Joan Cusack and Dan Fogler\n\nDe negen jaar oude Milo (Seth Green) komt er achter hoe erg hij zijn moeder (Joan Cusack) nodig heeft wanneer ze wordt ontvoerd door marsmannetjes. Ze willen haar als moeder gebruiken voor hun eigen jonkies...\n\nA young boy named Milo gains a deeper appreciation for his mom after Martians come to Earth to take her away. \n\n------------------ Dutch Friends ------------------\n\nYou can find my Friends at: http://www.Film-Test.nl \n                    \n------ They got my dutchs subs ---- and more ------\n\nGeneral:\n\nComplete name                    : Mars Needs Moms!\\Mars Needs Moms!.avi\nFormat                           : AVI\nFormat/Info                      : Audio Video Interleave\nFile size                        : 1.37 GiB\nDuration                         : 1h 24mn\nOverall bit rate                 : 2 323 Kbps\n\nVideo:\n\nFormat                           : MPEG-4 Visual\nFormat profile                   : Simple@L3\nFormat settings, BVOP            : No\nFormat settings, QPel            : No\nFormat settings, GMC             : No warppoints\nFormat settings, Matrix          : Default (H.263)\nCodec ID                         : XVID\nCodec ID/Hint                    : XviD\nDuration                         : 1h 24mn\nBit rate                         : 2 150 Kbps\nWidth                            : 720 pixels\nHeight                           : 500 pixels\nDisplay aspect ratio             : 1.440\nFrame rate                       : 25.000 fps\nColor space                      : YUV\nChroma subsampling               : 4:2:0\nBit depth                        : 8 bits\nScan type                        : Progressive\nBits/(Pixel*Frame)               : 0.239\nStream size                      : 1.27 GiB (93%)\nWriting library                  : XviD 1.1.2 (UTC 2006-11-01)\n\nAudio:\n\nFormat                           : MPEG Audio\nFormat version                   : Version 1\nFormat profile                   : Layer 3\nMode                             : Joint stereo\nMode extension                   : MS Stereo\nCodec ID                         : 55\nCodec ID/Hint                    : MP3\nDuration                         : 1h 24mn\nBit rate mode                    : Constant\nBit rate                         : 160 Kbps\nChannel(s)                       : 2 channels\nSampling rate                    : 48.0 KHz\nStream size                      : 96.7 MiB (7%)\nAlignment                        : Split accross interleaves\nInterleave, duration             : 24 ms (0.60 video frame)\nInterleave, preload duration     : 44 ms\nWriting library                  : LAME3.98\n\n","torrent":{"xt":"urn:btih:f904451b7c6964fb85b9f3c10b60b0d0ccce73d0","amp;dn":"Mars+Needs+Moms%21+2011+DVDrip+English+Klam","amp;tr":["udp%3A%2F%2Ftracker.openbittorrent.com%3A80","udp%3A%2F%2Fopen.demonii.com%3A1337","udp%3A%2F%2Ftracker.coppersurfer.tk%3A6969","udp%3A%2F%2Fexodus.desync.com%3A6969"],"infoHash":"f904451b7c6964fb85b9f3c10b60b0d0ccce73d0","infoHashBuffer":{"type":"Buffer","data":[249,4,69,27,124,105,100,251,133,185,243,193,11,96,176,208,204,206,115,208]},"announce":[],"urlList":[]}}